<svg width="128" height="128" viewBox="0 0 128 128" fill="none" xmlns="http://www.w3.org/2000/svg">
<path fill-rule="evenodd" clip-rule="evenodd" d="M64 0H0V64V128H64H128V64V0H64ZM64 0C99.3462 0 128 28.6538 128 64C128 99.3462 99.3462 128 64 128C28.6538 128 0 99.3462 0 64C0 28.6538 28.6538 0 64 0Z" fill="#0C24FF"/>
<path d="M125.521 81.6404L125.521 81.6405L125.521 81.6408C91.5976 71.9135 56.2143 91.4816 46.4057 125.359C56.0223 91.4958 36.4779 56.2202 2.67321 46.4142C36.5349 56.0111 71.7999 36.4563 81.5925 2.64722C71.9628 36.5728 91.5997 71.9137 125.521 81.6404Z" fill="#0C24FF"/>
</svg>