<svg width="80" height="80" viewBox="0 0 80 80" fill="none" xmlns="http://www.w3.org/2000/svg">
<path fill-rule="evenodd" clip-rule="evenodd" d="M40 0H0V40V80H40H80V40V0H40ZM40 0C62.0914 0 80 17.9086 80 40C80 62.0914 62.0914 80 40 80C17.9086 80 0 62.0914 0 40C0 17.9086 17.9086 0 40 0Z" fill="#FBFBF9"/>
<path d="M78.4503 51.0252L78.4506 51.0253L78.4505 51.0255C57.2485 44.9459 35.134 57.176 29.0036 78.3495C35.0139 57.1849 22.7987 35.1376 1.67076 29.0089C22.8343 35.0069 44.8749 22.7852 50.9953 1.65451C44.9767 22.858 57.2498 44.9461 78.4503 51.0252Z" fill="#FBFBF9"/>
</svg>