<svg width="302" height="64" viewBox="0 0 302 64" fill="none" xmlns="http://www.w3.org/2000/svg">
<path fill-rule="evenodd" clip-rule="evenodd" d="M32 -3.8147e-06H0V32V64H32H64V32V-3.8147e-06H32ZM32 -3.8147e-06C49.6731 -3.8147e-06 64 14.3269 64 32C64 49.6731 49.6731 64 32 64C14.3269 64 0 49.6731 0 32C0 14.3269 14.3269 -3.8147e-06 32 -3.8147e-06Z" fill="#FFF"/>
<path d="M62.7603 40.8202L62.7605 40.8202L62.7604 40.8204C45.7988 35.9567 28.1072 45.7408 23.2029 62.6796C28.0111 45.7479 18.2389 28.1101 1.3366 23.2071C18.2675 28.0055 35.8999 18.2281 40.7963 1.3236C35.9814 18.2864 45.7998 35.9569 62.7603 40.8202Z" fill="#FFF"/>
<path d="M113.161 40.5884C113.161 35.145 109.532 32.0605 104.754 31.2742C108.867 30.5484 112.072 27.4639 112.072 22.9882C112.072 17.061 108.383 12.9483 99.0689 12.9483H84.3718V51.0517H99.5527C108.444 51.0517 113.161 47.1809 113.161 40.5884ZM99.8551 32.8467C106.085 32.8467 109.472 35.6289 109.472 40.4069C109.472 45.1245 106.085 47.8462 99.8551 47.8462H88.0612V32.8467H99.8551ZM88.0612 16.1538H99.6737C105.722 16.1538 108.323 18.8755 108.323 22.9882C108.323 27.2219 105.722 29.7622 99.6737 29.7622H88.0612V16.1538Z" fill="#FFF"/>
<path d="M138.086 51.0517L150.424 16.5772H150.666V51.0517H154.537V12.9483H148.307L136.816 45.9108H136.634L124.477 12.9483H118.187V51.0517H121.816V16.5772H122.058L134.88 51.0517H138.086Z" fill="#FFF"/>
<path d="M177.97 51.7775C184.2 51.7775 190.006 48.7534 191.578 43.552V51.0517H195.147V32.5443H179.301V35.7499H191.76C191.336 43.1891 186.377 48.572 178.151 48.572C169.503 48.572 163.394 42.2819 163.394 32.0605C163.394 21.8391 169.442 15.428 177.789 15.428C186.196 15.428 191.155 20.5085 191.518 28.2501L195.207 28.0082C194.542 18.1497 188.433 12.2225 177.789 12.2225C167.386 12.2225 159.402 20.2666 159.402 32C159.402 43.8544 167.204 51.7775 177.97 51.7775Z" fill="#FFF"/>
<path d="M220.402 39.8626C220.402 42.2819 218.346 43.4915 215.987 43.4915C212.6 43.4915 210.362 41.8585 210.241 38.2296L200.141 37.9272C200.141 46.3946 206.008 51.7775 215.987 51.7775C224.878 51.7775 230.926 47.7857 230.926 40.6489C230.926 35.9918 228.144 32.6048 223.124 31.7581C226.692 31.2742 229.958 28.1897 229.958 23.593C229.958 16.8191 224.817 12.2225 215.806 12.2225C206.249 12.2225 200.625 18.5126 200.625 26.3752L210.483 26.7986C210.483 23.2302 212.177 20.5085 215.503 20.5085C218.346 20.5085 219.797 22.1415 219.797 24.6817C219.797 27.3429 217.681 28.6735 215.443 28.6735C214.475 28.6735 213.144 28.6735 212.54 28.5525V35.8708C213.568 35.7499 214.596 35.7499 215.322 35.7499C218.225 35.7499 220.402 37.0805 220.402 39.8626Z" fill="#FFF"/>
<path d="M250.038 20.3875C252.88 20.3875 254.634 21.7181 254.937 24.3188L264.493 24.1374C263.767 16.5167 258.445 12.2225 250.219 12.2225C239.151 12.2225 233.526 20.569 233.526 32.1814C233.526 44.2778 239.272 51.7775 249.977 51.7775C258.626 51.7775 264.856 46.818 264.856 38.5925C264.856 31.3347 259.896 26.2542 251.55 26.2542C247.86 26.2542 244.715 27.5848 242.961 29.7622C243.324 24.1979 245.804 20.3875 250.038 20.3875ZM244.594 38.8344C244.594 35.8103 246.53 33.8144 249.796 33.8144C253.183 33.8144 255.118 35.8103 255.118 38.8344C255.118 41.7375 253.183 43.7334 249.796 43.7334C246.53 43.7334 244.594 41.6771 244.594 38.8344Z" fill="#FFF"/>
<path d="M301.963 32C301.963 19.3593 295.189 12.2225 284.725 12.2225C274.323 12.2225 267.488 19.3593 267.488 32C267.488 44.6407 274.323 51.7775 284.725 51.7775C295.189 51.7775 301.963 44.6407 301.963 32ZM291.136 32C291.136 39.8626 289.382 43.4915 284.725 43.4915C280.129 43.4915 278.375 39.8626 278.375 32C278.375 24.1374 280.129 20.5085 284.725 20.5085C289.382 20.5085 291.136 24.1374 291.136 32Z" fill="#FFF"/>
</svg>